# xmcd CD database file
#
# Track frame offsets:
#	150
#	17585
#	41203
#	54895
#	75363
#	91574
#	106949
#	123169
#	139843
#	157862
#	170511
#	187025
#	203153
#	219468
#
# Disc length: 2959 seconds
#
# Revision: 0
# Processed by: cddbd v1.5.2PL0 Copyright (c) Steve Scherf et al.
# Submitted via: CDex 1.70beta2
#
DISCID=a90b8d0e
DTITLE=The Laid Back Jazz Quartet - Laid Back at the Paperback
DYEAR=2008
DGENRE=Jazz
TTITLE0=There Will Never Be Another You
TTITLE1=Softly as a Morning Sunrise
TTITLE2=Fly Me to the Moon
TTITLE3=The Way Yoy Look Tonight
TTITLE4=If I Had You
TTITLE5=A Foggy Day
TTITLE6=Four
TTITLE7=More
TTITLE8=Isn't It Romantic?
TTITLE9=The Girl From Ipanema
TTITLE10=I Thought of You
TTITLE11=I'll Remember April
TTITLE12=Sweet Lorraine
TTITLE13=Outro
EXTD=YEAR: 2008
EXTT0=
EXTT1=
EXTT2=
EXTT3=
EXTT4=
EXTT5=
EXTT6=
EXTT7=
EXTT8=
EXTT9=
EXTT10=
EXTT11=
EXTT12=
EXTT13=
PLAYORDER=
